#N canvas 192 192 1920 966 12;
#X floatatom 202 176 5 0 0 0 - - - 0;
#X floatatom 280 174 5 0 0 0 - - - 0;
#X floatatom 361 172 5 0 0 0 - - - 0;
#X obj 202 199 osc~;
#X obj 202 223 *~;
#X obj 202 247 *~;
#X obj 202 271 dac~;
#X obj 280 197 osc~;
#X obj 361 195 dbtorms;
#X text 218 138 Ring Mod (RM);
#X text 179 175 Fc;
#X text 259 173 Fm;
#X text 249 249 sin(Fc + Fm) + sin(Fc - Fm);
#X floatatom 540 165 5 0 0 0 - - - 0;
#X floatatom 618 113 5 0 0 0 - - - 0;
#X floatatom 699 161 5 0 0 0 - - - 0;
#X obj 540 188 osc~;
#X obj 540 212 *~;
#X obj 540 236 *~;
#X obj 540 260 dac~;
#X obj 699 184 dbtorms;
#X text 517 164 Fc;
#X text 589 111 Fm;
#X text 649 252 Amplitude Mod (AM);
#X obj 618 140 osc~;
#X obj 618 164 +~ 1;
#X obj 618 188 *~ 0.5;
#X text 506 298 .5sin(Fc) + .25sin(Fc + Fm) + .25sin(Fc - Fm);
#X floatatom 346 394 5 0 0 0 - - - 0;
#X floatatom 415 469 5 0 0 0 - - - 0;
#X obj 346 417 osc~;
#X obj 346 441 *~;
#X obj 415 492 dbtorms;
#X text 466 553 sin(Fc + Fm) + sin(Fc - Fm);
#X text 362 356 Frequency Mod (FM);
#X obj 346 465 +~ 440;
#X obj 346 489 osc~;
#X obj 346 513 *~;
#X obj 346 537 dac~;
#X floatatom 428 393 5 0 0 0 - - - 0;
#X floatatom 429 430 5 0 0 0 - - - 0;
#X text 411 392 D;
#X text 409 430 Fc;
#X text 323 393 Fm;
#X connect 0 0 3 0;
#X connect 1 0 7 0;
#X connect 2 0 8 0;
#X connect 3 0 4 0;
#X connect 4 0 5 0;
#X connect 5 0 6 0;
#X connect 5 0 6 1;
#X connect 7 0 4 1;
#X connect 8 0 5 1;
#X connect 13 0 16 0;
#X connect 14 0 24 0;
#X connect 15 0 20 0;
#X connect 16 0 17 0;
#X connect 17 0 18 0;
#X connect 18 0 19 0;
#X connect 18 0 19 1;
#X connect 20 0 18 1;
#X connect 24 0 25 0;
#X connect 25 0 26 0;
#X connect 26 0 17 1;
#X connect 28 0 30 0;
#X connect 29 0 32 0;
#X connect 30 0 31 0;
#X connect 31 0 35 0;
#X connect 32 0 37 1;
#X connect 35 0 36 0;
#X connect 36 0 37 0;
#X connect 37 0 38 0;
#X connect 37 0 38 1;
#X connect 39 0 31 1;
#X connect 40 0 35 1;
