#N canvas 96 96 1920 966 12;
#X obj 476 116 bng 19 250 50 0 empty empty empty 0 -10 0 12 #fcfcfc #000000 #000000;
#X obj 412 162 t b b;
#X msg 412 207 515;
#X obj 415 256 until;
#X msg 517 282 0;
#X obj 418 348 f;
#X obj 501 353 + 1;
#X obj 414 422 t f f;
#X obj 388 758 array set wavetable;
#X obj 802 124 array define wavetable 515;
#X obj 325 483 mod 512;
#X obj 338 530 / 512;
#X obj 340 576 * 6.28;
#X obj 346 628 sin;
#X msg 809 243 1;
#X obj 809 279 atan2;
#X obj 801 364 s pi;
#X floatatom 873 362 5 0 0 0 - - - 0;
#X obj 799 315 * 4;
#X obj 536 537 r pi;
#X obj 539 580 * 2;
#X obj 1220 72 bng 19 250 50 0 empty empty empty 0 -10 0 12 #fcfcfc #000000 #000000;
#X obj 1156 118 t b b;
#X msg 1156 163 515;
#X obj 1159 212 until;
#X msg 1261 238 0;
#X obj 1162 304 f;
#X obj 1245 309 + 1;
#X obj 1106 884 array set wavetable;
#X obj 1069 439 mod 512;
#X obj 1082 486 / 512;
#X obj 1084 532 * 6.28;
#X obj 1090 584 sin;
#X obj 1158 378 t f f f f f f;
#X obj 1159 438 mod 512;
#X obj 1172 485 / 512;
#X obj 1174 531 * 6.28;
#X obj 1180 583 sin;
#X obj 1252 444 mod 512;
#X obj 1265 491 / 512;
#X obj 1267 537 * 6.28;
#X obj 1291 648 sin;
#X obj 1354 443 mod 512;
#X obj 1367 490 / 512;
#X obj 1369 536 * 6.28;
#X obj 1393 647 sin;
#X obj 1452 446 mod 512;
#X obj 1465 493 / 512;
#X obj 1467 539 * 6.28;
#X obj 1498 661 sin;
#X obj 1550 446 mod 512;
#X obj 1563 493 / 512;
#X obj 1565 539 * 6.28;
#X obj 1589 650 sin;
#X obj 1459 749 +;
#X obj 1373 757 +;
#X obj 1282 758 +;
#X obj 1187 813 +;
#X obj 1579 692 / 5;
#X obj 1461 706 / 4;
#X obj 1388 690 / 3;
#X obj 1296 690 / 2;
#X obj 1302 586 * 2;
#X obj 1394 586 * 3;
#X obj 1467 602 * 4;
#X obj 1585 588 * 5;
#X connect 0 0 1 0;
#X connect 1 0 2 0;
#X connect 1 1 4 0;
#X connect 2 0 3 0;
#X connect 3 0 5 0;
#X connect 4 0 5 1;
#X connect 5 0 6 0;
#X connect 5 0 7 0;
#X connect 6 0 5 1;
#X connect 7 0 10 0;
#X connect 7 1 8 1;
#X connect 10 0 11 0;
#X connect 11 0 12 0;
#X connect 12 0 13 0;
#X connect 13 0 8 0;
#X connect 14 0 15 0;
#X connect 14 0 15 1;
#X connect 15 0 18 0;
#X connect 18 0 16 0;
#X connect 18 0 17 0;
#X connect 19 0 20 0;
#X connect 20 0 12 1;
#X connect 21 0 22 0;
#X connect 22 0 23 0;
#X connect 22 1 25 0;
#X connect 23 0 24 0;
#X connect 24 0 26 0;
#X connect 25 0 26 1;
#X connect 26 0 27 0;
#X connect 26 0 33 0;
#X connect 27 0 26 1;
#X connect 29 0 30 0;
#X connect 30 0 31 0;
#X connect 31 0 32 0;
#X connect 32 0 28 0;
#X connect 33 0 29 0;
#X connect 33 1 34 0;
#X connect 33 2 38 0;
#X connect 33 3 42 0;
#X connect 33 4 46 0;
#X connect 33 5 50 0;
#X connect 34 0 35 0;
#X connect 35 0 36 0;
#X connect 36 0 37 0;
#X connect 37 0 57 0;
#X connect 38 0 39 0;
#X connect 39 0 40 0;
#X connect 40 0 62 0;
#X connect 41 0 61 0;
#X connect 42 0 43 0;
#X connect 43 0 44 0;
#X connect 44 0 63 0;
#X connect 45 0 60 0;
#X connect 46 0 47 0;
#X connect 47 0 48 0;
#X connect 48 0 64 0;
#X connect 49 0 59 0;
#X connect 50 0 51 0;
#X connect 51 0 52 0;
#X connect 52 0 65 0;
#X connect 53 0 58 0;
#X connect 54 0 55 1;
#X connect 55 0 56 1;
#X connect 56 0 57 1;
#X connect 57 0 28 1;
#X connect 58 0 54 1;
#X connect 59 0 54 0;
#X connect 60 0 55 0;
#X connect 61 0 56 0;
#X connect 62 0 41 0;
#X connect 63 0 45 0;
#X connect 64 0 49 0;
#X connect 65 0 53 0;
