#N canvas 424 329 1920 966 12;
#X obj 402 240 mirror~;
#X obj 522 151 osc~ 440;
#X obj 416 343 *~;
#X floatatom 624 278 5 0 0 0 - - - 0;
#X obj 623 327 dbtorms;
#X obj 571 370 *~;
#X obj 573 430 dac~ 2;
#X obj 423 408 dac~ 1;
#X floatatom 471 252 5 0 0 0 - - - 0;
#X obj 470 301 dbtorms;
#X connect 0 0 2 0;
#X connect 1 0 0 0;
#X connect 1 0 5 0;
#X connect 2 0 7 0;
#X connect 3 0 4 0;
#X connect 4 0 5 1;
#X connect 5 0 6 0;
#X connect 8 0 9 0;
#X connect 9 0 2 1;
