#N canvas 4 64 1920 966 10;
#X obj 780 223 dynstoch~;
#X msg 300 60 initwave;
#X msg 300 100 setfreq 440;
#X msg 300 180 x_deviation 0.001;
#X msg 300 220 y_deviation 0.001;
#X obj 791 335 dac~;
#X msg 232 262 second_order 1;
#X obj 791 290 *~ 0.2;
#X msg 300 140 freqbounds 100 600;
#X msg 300 300 cauchy_t 4;
#X connect 0 0 7 0;
#X connect 1 0 0 0;
#X connect 2 0 0 0;
#X connect 3 0 0 0;
#X connect 4 0 0 0;
#X connect 6 0 0 0;
#X connect 7 0 5 0;
#X connect 8 0 0 0;
#X connect 9 0 0 0;
